<?xml version="1.0" encoding="UTF-8"?>
<svg id="_レイヤー_2" data-name="レイヤー 2" xmlns="http://www.w3.org/2000/svg" xmlns:xlink="http://www.w3.org/1999/xlink" viewBox="0 0 462.38 204.38">
  <defs>
    <style>
      .cls-1 {
        fill: #fff9f1;
      }

      .cls-2 {
        filter: url(#outer-glow-1);
      }
    </style>
    <filter id="outer-glow-1" filterUnits="userSpaceOnUse">
      <feOffset dx="0" dy="0"/>
      <feGaussianBlur result="blur" stdDeviation="5"/>
      <feFlood flood-color="#fff" flood-opacity=".5"/>
      <feComposite in2="blur" operator="in"/>
      <feComposite in="SourceGraphic"/>
    </filter>
  </defs>
  <g id="_レイヤー_3" data-name="レイヤー 3">
    <g class="cls-2">
      <path class="cls-1" d="M453.95,92.94c0-6.24,3.77-12.42,8.42-13.8l-.13-.14c-4.65,1.38-8.42-2.55-8.42-8.79l.13-.21c0,6.24-3.77,12.42-8.42,13.8v.35c4.65-1.38,8.42,2.55,8.42,8.79Z"/>
      <path class="cls-1" d="M405.46,59.93c0-16.3,9.85-32.44,22.01-36.05l-.34-.35c-12.16,3.61-22.01-6.67-22.01-22.97l.34-.55c0,16.3-9.85,32.44-22.01,36.05v.91c12.16-3.61,22.01,6.67,22.01,22.97Z"/>
      <path class="cls-1" d="M323.66,108.05c0-8.24,4.98-16.41,11.13-18.23l-.17-.18c-6.15,1.83-11.13-3.38-11.13-11.62l.17-.28c0,8.24-4.98,16.41-11.13,18.23v.46c6.15-1.83,11.13,3.38,11.13,11.62Z"/>
      <path class="cls-1" d="M85.64,59.62c0-5.27,3.19-10.49,7.11-11.65l-.11-.11c-3.93,1.17-7.11-2.16-7.11-7.43l.11-.18c0,5.27-3.19,10.49-7.11,11.65v.29c3.93-1.17,7.11,2.16,7.11,7.43Z"/>
      <path class="cls-1" d="M200.5,92.84c0-10.35,6.26-20.59,13.97-22.89l-.21-.22c-7.72,2.29-13.97-4.24-13.97-14.58l.21-.35c0,10.35-6.26,20.59-13.97,22.89v.58c7.72-2.29,13.97,4.24,13.97,14.58Z"/>
      <path class="cls-1" d="M185.18,191.36c0-7.15,4.32-14.22,9.65-15.81l-.15-.15c-5.33,1.58-9.65-2.93-9.65-10.07l.15-.24c0,7.15-4.32,14.22-9.65,15.81v.4c5.33-1.58,9.65,2.93,9.65,10.07Z"/>
      <path class="cls-1" d="M18.21,204.38c0-13.49,8.15-26.84,18.21-29.83l-.28-.29c-10.06,2.99-18.21-5.52-18.21-19.01l.28-.46c0,13.49-8.15,26.84-18.21,29.83v.75c10.06-2.99,18.21,5.52,18.21,19.01Z"/>
    </g>
  </g>
</svg>