<?xml version="1.0" encoding="UTF-8"?>
<svg id="_レイヤー_2" data-name="レイヤー 2" xmlns="http://www.w3.org/2000/svg" viewBox="0 0 235.24 120.74">
  <defs>
    <style>
      .cls-1 {
        fill: #fff9f1;
      }
    </style>
  </defs>
  <g id="_レイヤー_2-2" data-name="レイヤー 2">
    <g>
      <g>
        <path class="cls-1" d="M1.86,100.8c-1.2,.39-1.86-.1-1.86-1.38v-32.46c0-.92,.53-1.66,1.39-1.94l3.25-1.06c.85-.28,1.39,.15,1.39,1.09v28.22l11.42-3.73v-28.27c0-.92,.53-1.66,1.39-1.94l2.84-.93c.89-.29,1.45,.12,1.45,1.07v28.22l11.42-3.73v-28.27c0-.9,.53-1.66,1.34-1.93l3.25-1.06c.83-.27,1.39,.14,1.39,1.03v32.41c0,1.28-.66,2.25-1.76,2.61L1.86,100.8Z"/>
        <path class="cls-1" d="M38.8,88.03L1.86,100.08c-.83,.27-1.19,0-1.19-.88v-32.46c0-.5,.21-.84,.72-1.01l3.25-1.06c.46-.15,.72,.04,.72,.59v28.93l12.76-4.16v-28.99c0-.5,.21-.84,.72-1.01l2.84-.93c.52-.17,.77,.02,.77,.57v28.93l12.76-4.16v-28.99c0-.5,.21-.84,.67-.99l3.25-1.06c.46-.15,.72,.04,.72,.54v32.41c0,.94-.41,1.46-1.08,1.68Z"/>
        <path class="cls-1" d="M45.88,86.55c-.85,.28-1.39-.11-1.39-.98V52.34c0-.88,.55-1.67,1.34-1.93l3.36-1.1c.85-.28,1.39,.15,1.39,1.09v33.12c0,.95-.51,1.65-1.39,1.94l-3.31,1.08Zm0-40.51c-.86,.28-1.39-.11-1.39-1.03v-4.46c0-.88,.55-1.67,1.34-1.93l3.36-1.1c.86-.28,1.39,.11,1.39,1.03v4.41c0,.97-.52,1.71-1.39,2l-3.31,1.08Z"/>
        <path class="cls-1" d="M49.19,44.25l-3.31,1.08c-.46,.15-.72,.02-.72-.54v-4.46c0-.5,.26-.86,.67-.99l3.36-1.1c.52-.17,.72,.04,.72,.54v4.41c0,.55-.21,.89-.72,1.06Zm0,40.51l-3.31,1.08c-.46,.15-.72,.02-.72-.48V52.12c0-.5,.26-.86,.67-.99l3.36-1.1c.52-.17,.72,.09,.72,.59v33.12c0,.55-.21,.84-.72,1.01Z"/>
        <path class="cls-1" d="M55.65,83.31c-.84,.27-1.34-.12-1.34-1.05v-3.09c0-.93,.5-1.65,1.34-1.93l24.23-7.91v-9.76l-23.77,7.75c-1.17,.38-1.81-.09-1.81-1.34v-16.2c0-1.19,.67-2.15,1.76-2.5l28.16-9.19c.85-.28,1.45,.14,1.45,1.02v3.14c0,.9-.57,1.67-1.45,1.96l-23.92,7.8v8.87l23.66-7.72c1.18-.38,1.91,.14,1.91,1.36v16.98c0,1.23-.72,2.16-1.96,2.57l-28.26,9.22Z"/>
        <path class="cls-1" d="M83.9,73.37l-28.26,9.22c-.46,.15-.67,0-.67-.55v-3.09c0-.55,.21-.84,.67-.99l24.9-8.12v-11.19l-24.44,7.97c-.77,.25-1.14,.04-1.14-.84v-16.2c0-.77,.36-1.33,1.08-1.57l28.16-9.19c.46-.15,.77,.02,.77,.52v3.14c0,.55-.31,.87-.77,1.02l-24.59,8.02v10.31l24.33-7.94c.88-.29,1.24,.09,1.24,.86v16.98c0,.83-.41,1.35-1.29,1.63Z"/>
        <path class="cls-1" d="M90.93,71.8c-1.15,.37-1.81-.11-1.81-1.34V38.44c0-1.19,.69-2.15,1.81-2.52l23.77-7.75v-10.31c0-.95,.51-1.65,1.39-1.94l3.2-1.05c.87-.28,1.39,.12,1.39,1.09V60.1c0,1.26-.66,2.2-1.81,2.57l-27.95,9.12Zm23.77-13.93v-23.48l-19.58,6.39v23.48l19.58-6.39Z"/>
        <path class="cls-1" d="M118.88,61.96l-27.95,9.12c-.77,.25-1.14-.02-1.14-.84V38.22c0-.77,.36-1.33,1.14-1.58l24.44-7.97v-11.02c0-.55,.21-.84,.72-1.01l3.2-1.05c.52-.17,.72,.04,.72,.59V60.32c0,.88-.36,1.39-1.14,1.64Zm-3.51-28.51l-20.92,6.83v24.91l20.92-6.83v-24.91Z"/>
        <path class="cls-1" d="M126.07,60.33c-1.18,.39-1.86-.1-1.86-1.32V26.99c0-1.19,.69-2.15,1.81-2.52l28.36-9.25c1.13-.37,1.86,.15,1.86,1.32V48.56c0,1.21-.7,2.16-1.86,2.54l-28.31,9.24Zm24.18-14.06V22.79l-19.99,6.52v23.48l19.99-6.52Z"/>
        <path class="cls-1" d="M154.38,50.38l-28.31,9.24c-.83,.27-1.19,0-1.19-.83V26.77c0-.77,.36-1.33,1.14-1.58l28.36-9.25c.77-.25,1.19,.05,1.19,.82V48.78c0,.83-.41,1.35-1.19,1.6Zm-3.46-28.52l-21.34,6.96v24.91l21.34-6.96V21.86Z"/>
        <path class="cls-1" d="M197.88,37.07c-.83,.27-1.39-.14-1.39-1.03V7.65l-12.56,4.1v28.38c0,.88-.55,1.67-1.34,1.93l-2.84,.93c-.86,.28-1.39-.11-1.39-1.03V13.57l-12.55,4.1v28.38c0,.9-.57,1.67-1.45,1.96l-3.2,1.05c-.83,.27-1.39-.14-1.39-1.03V15.39c0-1.19,.69-2.15,1.81-2.52L200.67,.12c1.15-.37,1.86,.17,1.86,1.43V34.12c0,.84-.57,1.62-1.39,1.89l-3.25,1.06Z"/>
        <path class="cls-1" d="M201.14,35.29l-3.25,1.06c-.46,.15-.72-.04-.72-.54V6.72l-13.9,4.53v29.1c0,.5-.26,.86-.67,.99l-2.84,.93c-.52,.17-.72-.04-.72-.54V12.63l-13.9,4.53v29.1c0,.5-.26,.86-.77,1.02l-3.2,1.05c-.46,.15-.72-.04-.72-.54V15.17c0-.77,.36-1.33,1.14-1.58L200.67,.83c.77-.25,1.19,.05,1.19,.94V34.34c0,.44-.26,.8-.72,.95Z"/>
      </g>
      <g>
        <path class="cls-1" d="M108.99,120.63c-1,.32-1.55-.05-1.55-1.05v-39.46l-15.29,4.93c-.95,.31-1.55-.11-1.55-1.1v-3.31c0-1.44,1.04-1.93,1.49-2.08l37.7-12.15c.98-.32,1.54,.08,1.54,1.1v3.31c0,1.02-.56,1.78-1.54,2.1l-15.73,5.07v39.46c0,.98-.56,1.72-1.55,2.04l-3.53,1.14Z"/>
        <path class="cls-1" d="M135.05,112.45c-.92,.3-1.49-.09-1.49-1.01v-27.12c0-.7,.43-1.3,.8-1.74l6.69-7.57c.36-.4,.79-.8,1.56-1.05l14.46-4.66c.92-.3,1.49,.09,1.49,1.01v3.25c0,.89-.6,1.68-1.49,1.97l-13.44,4.33-3.62,3.99v25.5c0,.88-.64,1.69-1.55,1.99l-3.42,1.1Z"/>
        <path class="cls-1" d="M162.6,103.41c-1.26,.41-1.99-.1-1.99-1.4v-31.91c0-1.26,.74-2.22,2.04-2.64l31.52-10.16c1.21-.39,1.99,.12,1.99,1.29v17.14c0,1.21-.76,2.17-2.04,2.59l-27.05,8.72v8.82l27.54-8.88c.94-.3,1.55,.09,1.55,.99v3.09c0,.91-.66,1.76-1.6,2.06l-31.96,10.3Zm27.05-28.83v-9.81l-22.58,7.28v9.81l22.58-7.28Z"/>
        <path class="cls-1" d="M201.68,90.81c-1.26,.41-1.99-.1-1.99-1.4v-31.91c0-1.26,.74-2.22,2.04-2.64l31.52-10.16c1.21-.39,1.99,.12,1.99,1.29v17.14c0,1.21-.76,2.17-2.04,2.59l-27.05,8.72v8.82l27.54-8.88c.94-.3,1.55,.09,1.55,.99v3.09c0,.91-.66,1.76-1.6,2.06l-31.96,10.3Zm27.05-28.83v-9.81l-22.58,7.28v9.81l22.58-7.28Z"/>
      </g>
    </g>
  </g>
</svg>